<?xml version="1.0" encoding="utf-8"?>
<!-- Generator: Adobe Illustrator 24.1.1, SVG Export Plug-In . SVG Version: 6.00 Build 0)  -->
<svg version="1.1" id="Layer_1" xmlns="http://www.w3.org/2000/svg" xmlns:xlink="http://www.w3.org/1999/xlink" x="0px" y="0px"
	 viewBox="0 0 121.3 122.9" style="enable-background:new 0 0 121.3 122.9;" xml:space="preserve">
<style type="text/css">
	.st0{fill-rule:evenodd;clip-rule:evenodd;fill:#555555;}
</style>
<g>
	<path class="st0" d="M90.9,5.3c6.9-7,18.2-7.1,25.2-0.1c7,7,7,18.4,0.1,25.4L85.7,61.5l30.4,30.9c6.9,7,6.8,18.3-0.2,25.2
		c-7,7-18.2,6.9-25.1,0L60.7,86.9l-30.3,30.7c-6.9,7-18.2,7.1-25.2,0.1c-7-7-7-18.4-0.1-25.4l30.4-30.8L5.1,30.6
		c-6.9-7-6.8-18.3,0.2-25.2c7-7,18.2-6.9,25.1,0L60.6,36L90.9,5.3L90.9,5.3z"/>
</g>
</svg>
