<?xml version="1.0" encoding="utf-8"?>
<!-- Generator: Adobe Illustrator 24.1.1, SVG Export Plug-In . SVG Version: 6.00 Build 0)  -->
<svg version="1.1" id="Layer_1" xmlns="http://www.w3.org/2000/svg" xmlns:xlink="http://www.w3.org/1999/xlink" x="0px" y="0px"
	 viewBox="0 0 1920 266" style="enable-background:new 0 0 1920 266;" xml:space="preserve">
<style type="text/css">
	.st0{fill:#64AEF2;}
	.st1{fill:#CFE2F4;}
</style>
<g>
	<path class="st0" d="M1922.1,1.5c-0.2,0-0.4,0-0.6,0c-10.3,0.6-20.6,0.4-31,0h-84.1c-2.6,0-5.2-0.1-7.8-0.3
		c-5.5,0.4-10.9,0.4-16.4-0.1c-2.7,0.2-5.5,0.3-8.2,0.3H-0.3v265.2L1922,3.1C1922,2.6,1922.1,2.1,1922.1,1.5L1922.1,1.5z"/>
</g>
<g>
	<path class="st1" d="M1922.1,1.5c-0.2,0-0.4,0-0.6,0c-10.3,0.6-20.6,0.4-31,0h-84.1c-2.6,0-5.2-0.1-7.8-0.3
		c-5.5,0.4-10.9,0.4-16.4-0.1c-2.7,0.2-5.5,0.3-8.2,0.3H-0.3v9l1922,205.1V11.1C1921.7,7.9,1921.9,4.7,1922.1,1.5L1922.1,1.5z"/>
</g>
</svg>
